<mxfile host="app.diagrams.net" modified="2024-06-27T16:01:09.432Z" agent="Mozilla/5.0 (X11; Linux x86_64) AppleWebKit/537.36 (KHTML, like Gecko) Chrome/122.0.0.0 YaBrowser/24.4.0.0 Safari/537.36" etag="De5jz7PUSeuLmwk4WnpX" version="24.6.3" type="device">
  <diagram id="C5RBs43oDa-KdzZeNtuy" name="Page-1">
    <mxGraphModel dx="1728" dy="936" grid="1" gridSize="10" guides="1" tooltips="1" connect="1" arrows="1" fold="1" page="1" pageScale="1" pageWidth="827" pageHeight="1169" math="0" shadow="0">
      <root>
        <mxCell id="WIyWlLk6GJQsqaUBKTNV-0" />
        <mxCell id="WIyWlLk6GJQsqaUBKTNV-1" parent="WIyWlLk6GJQsqaUBKTNV-0" />
        <mxCell id="zkfFHV4jXpPFQw0GAbJ--0" value="Port" style="swimlane;fontStyle=2;align=center;verticalAlign=top;childLayout=stackLayout;horizontal=1;startSize=26;horizontalStack=0;resizeParent=1;resizeLast=0;collapsible=1;marginBottom=0;rounded=0;shadow=0;strokeWidth=1;" parent="WIyWlLk6GJQsqaUBKTNV-1" vertex="1">
          <mxGeometry x="220" y="120" width="300" height="264" as="geometry">
            <mxRectangle x="230" y="140" width="160" height="26" as="alternateBounds" />
          </mxGeometry>
        </mxCell>
        <mxCell id="zkfFHV4jXpPFQw0GAbJ--1" value="- m_shipsRepair: std::vector&lt;ship::Ship&gt;" style="text;align=left;verticalAlign=top;spacingLeft=4;spacingRight=4;overflow=hidden;rotatable=0;points=[[0,0.5],[1,0.5]];portConstraint=eastwest;" parent="zkfFHV4jXpPFQw0GAbJ--0" vertex="1">
          <mxGeometry y="26" width="300" height="26" as="geometry" />
        </mxCell>
        <mxCell id="zkfFHV4jXpPFQw0GAbJ--3" value="-m_shipsQueue : std::deque&lt;ship::Ship&gt; " style="text;align=left;verticalAlign=top;spacingLeft=4;spacingRight=4;overflow=hidden;rotatable=0;points=[[0,0.5],[1,0.5]];portConstraint=eastwest;rounded=0;shadow=0;html=0;" parent="zkfFHV4jXpPFQw0GAbJ--0" vertex="1">
          <mxGeometry y="52" width="300" height="26" as="geometry" />
        </mxCell>
        <mxCell id="mQm23o8UObB9y6hTezoZ-4" value="-m_timerRepair : std::unique_ptr&lt;QTimer&gt; " style="text;align=left;verticalAlign=top;spacingLeft=4;spacingRight=4;overflow=hidden;rotatable=0;points=[[0,0.5],[1,0.5]];portConstraint=eastwest;rounded=0;shadow=0;html=0;" vertex="1" parent="zkfFHV4jXpPFQw0GAbJ--0">
          <mxGeometry y="78" width="300" height="24" as="geometry" />
        </mxCell>
        <mxCell id="mQm23o8UObB9y6hTezoZ-5" value="-m_timerUpDay : std::unique_ptr&lt;QTimer&gt; " style="text;align=left;verticalAlign=top;spacingLeft=4;spacingRight=4;overflow=hidden;rotatable=0;points=[[0,0.5],[1,0.5]];portConstraint=eastwest;rounded=0;shadow=0;html=0;" vertex="1" parent="zkfFHV4jXpPFQw0GAbJ--0">
          <mxGeometry y="102" width="300" height="24" as="geometry" />
        </mxCell>
        <mxCell id="mQm23o8UObB9y6hTezoZ-3" value="-m_day : std::unique_ptr&lt;Day&gt; " style="text;align=left;verticalAlign=top;spacingLeft=4;spacingRight=4;overflow=hidden;rotatable=0;points=[[0,0.5],[1,0.5]];portConstraint=eastwest;rounded=0;shadow=0;html=0;" vertex="1" parent="zkfFHV4jXpPFQw0GAbJ--0">
          <mxGeometry y="126" width="300" height="26" as="geometry" />
        </mxCell>
        <mxCell id="mQm23o8UObB9y6hTezoZ-2" value="-m_capacity : std::unique_ptr&lt;Capacity&gt; " style="text;align=left;verticalAlign=top;spacingLeft=4;spacingRight=4;overflow=hidden;rotatable=0;points=[[0,0.5],[1,0.5]];portConstraint=eastwest;rounded=0;shadow=0;html=0;" vertex="1" parent="zkfFHV4jXpPFQw0GAbJ--0">
          <mxGeometry y="152" width="300" height="26" as="geometry" />
        </mxCell>
        <mxCell id="mQm23o8UObB9y6hTezoZ-1" value="-m_queueShipAll : std::unique_ptr&lt;ship::QueueShip&gt;" style="text;align=left;verticalAlign=top;spacingLeft=4;spacingRight=4;overflow=hidden;rotatable=0;points=[[0,0.5],[1,0.5]];portConstraint=eastwest;rounded=0;shadow=0;html=0;" vertex="1" parent="zkfFHV4jXpPFQw0GAbJ--0">
          <mxGeometry y="178" width="300" height="26" as="geometry" />
        </mxCell>
        <mxCell id="mQm23o8UObB9y6hTezoZ-6" value="-m_writer : std::unique_ptr&lt;utils::Writer&gt; " style="text;align=left;verticalAlign=top;spacingLeft=4;spacingRight=4;overflow=hidden;rotatable=0;points=[[0,0.5],[1,0.5]];portConstraint=eastwest;rounded=0;shadow=0;html=0;" vertex="1" parent="zkfFHV4jXpPFQw0GAbJ--0">
          <mxGeometry y="204" width="300" height="26" as="geometry" />
        </mxCell>
        <mxCell id="zkfFHV4jXpPFQw0GAbJ--4" value="" style="line;html=1;strokeWidth=1;align=left;verticalAlign=middle;spacingTop=-1;spacingLeft=3;spacingRight=3;rotatable=0;labelPosition=right;points=[];portConstraint=eastwest;" parent="zkfFHV4jXpPFQw0GAbJ--0" vertex="1">
          <mxGeometry y="230" width="300" height="8" as="geometry" />
        </mxCell>
        <mxCell id="zkfFHV4jXpPFQw0GAbJ--6" value="Capacity{struct}" style="swimlane;fontStyle=0;align=center;verticalAlign=top;childLayout=stackLayout;horizontal=1;startSize=26;horizontalStack=0;resizeParent=1;resizeLast=0;collapsible=1;marginBottom=0;rounded=0;shadow=0;strokeWidth=1;" parent="WIyWlLk6GJQsqaUBKTNV-1" vertex="1">
          <mxGeometry y="294" width="160" height="90" as="geometry">
            <mxRectangle x="130" y="380" width="160" height="26" as="alternateBounds" />
          </mxGeometry>
        </mxCell>
        <mxCell id="zkfFHV4jXpPFQw0GAbJ--7" value="-m_capacity : int " style="text;align=left;verticalAlign=top;spacingLeft=4;spacingRight=4;overflow=hidden;rotatable=0;points=[[0,0.5],[1,0.5]];portConstraint=eastwest;" parent="zkfFHV4jXpPFQw0GAbJ--6" vertex="1">
          <mxGeometry y="26" width="160" height="26" as="geometry" />
        </mxCell>
        <mxCell id="mQm23o8UObB9y6hTezoZ-8" value="-m_maxCapacity : int " style="text;whiteSpace=wrap;" vertex="1" parent="zkfFHV4jXpPFQw0GAbJ--6">
          <mxGeometry y="52" width="160" height="18" as="geometry" />
        </mxCell>
        <mxCell id="zkfFHV4jXpPFQw0GAbJ--9" value="" style="line;html=1;strokeWidth=1;align=left;verticalAlign=middle;spacingTop=-1;spacingLeft=3;spacingRight=3;rotatable=0;labelPosition=right;points=[];portConstraint=eastwest;" parent="zkfFHV4jXpPFQw0GAbJ--6" vertex="1">
          <mxGeometry y="70" width="160" height="20" as="geometry" />
        </mxCell>
        <mxCell id="zkfFHV4jXpPFQw0GAbJ--13" value="Day{struct}" style="swimlane;fontStyle=0;align=center;verticalAlign=top;childLayout=stackLayout;horizontal=1;startSize=26;horizontalStack=0;resizeParent=1;resizeLast=0;collapsible=1;marginBottom=0;rounded=0;shadow=0;strokeWidth=1;" parent="WIyWlLk6GJQsqaUBKTNV-1" vertex="1">
          <mxGeometry y="120" width="160" height="86" as="geometry">
            <mxRectangle x="340" y="380" width="170" height="26" as="alternateBounds" />
          </mxGeometry>
        </mxCell>
        <mxCell id="zkfFHV4jXpPFQw0GAbJ--14" value="-m_maxDay : int " style="text;align=left;verticalAlign=top;spacingLeft=4;spacingRight=4;overflow=hidden;rotatable=0;points=[[0,0.5],[1,0.5]];portConstraint=eastwest;" parent="zkfFHV4jXpPFQw0GAbJ--13" vertex="1">
          <mxGeometry y="26" width="160" height="26" as="geometry" />
        </mxCell>
        <mxCell id="mQm23o8UObB9y6hTezoZ-7" value="- m_countDay : int" style="text;align=left;verticalAlign=top;spacingLeft=4;spacingRight=4;overflow=hidden;rotatable=0;points=[[0,0.5],[1,0.5]];portConstraint=eastwest;" vertex="1" parent="zkfFHV4jXpPFQw0GAbJ--13">
          <mxGeometry y="52" width="160" height="26" as="geometry" />
        </mxCell>
        <mxCell id="zkfFHV4jXpPFQw0GAbJ--15" value="" style="line;html=1;strokeWidth=1;align=left;verticalAlign=middle;spacingTop=-1;spacingLeft=3;spacingRight=3;rotatable=0;labelPosition=right;points=[];portConstraint=eastwest;" parent="zkfFHV4jXpPFQw0GAbJ--13" vertex="1">
          <mxGeometry y="78" width="160" height="8" as="geometry" />
        </mxCell>
        <mxCell id="mQm23o8UObB9y6hTezoZ-9" value="0..1" style="endArrow=diamondThin;html=1;rounded=0;exitX=0;exitY=0.5;exitDx=0;exitDy=0;entryX=1;entryY=0.25;entryDx=0;entryDy=0;endFill=0;endSize=10;" edge="1" parent="WIyWlLk6GJQsqaUBKTNV-1" source="mQm23o8UObB9y6hTezoZ-6" target="mQm23o8UObB9y6hTezoZ-8">
          <mxGeometry width="50" height="50" relative="1" as="geometry">
            <mxPoint x="300" y="530" as="sourcePoint" />
            <mxPoint x="350" y="480" as="targetPoint" />
          </mxGeometry>
        </mxCell>
        <mxCell id="mQm23o8UObB9y6hTezoZ-10" value="0..1" style="endArrow=diamondThin;html=1;rounded=0;exitX=0;exitY=0.5;exitDx=0;exitDy=0;entryX=1;entryY=0.5;entryDx=0;entryDy=0;endFill=0;endSize=10;" edge="1" parent="WIyWlLk6GJQsqaUBKTNV-1" source="mQm23o8UObB9y6hTezoZ-4" target="mQm23o8UObB9y6hTezoZ-7">
          <mxGeometry width="50" height="50" relative="1" as="geometry">
            <mxPoint x="300" y="530" as="sourcePoint" />
            <mxPoint x="350" y="480" as="targetPoint" />
          </mxGeometry>
        </mxCell>
        <mxCell id="mQm23o8UObB9y6hTezoZ-11" value="Factory" style="swimlane;fontStyle=0;align=center;verticalAlign=top;childLayout=stackLayout;horizontal=1;startSize=26;horizontalStack=0;resizeParent=1;resizeLast=0;collapsible=1;marginBottom=0;rounded=0;shadow=0;strokeWidth=1;" vertex="1" parent="WIyWlLk6GJQsqaUBKTNV-1">
          <mxGeometry x="470" y="790" width="190" height="146" as="geometry">
            <mxRectangle x="130" y="380" width="160" height="26" as="alternateBounds" />
          </mxGeometry>
        </mxCell>
        <mxCell id="mQm23o8UObB9y6hTezoZ-13" value="-m_maxCapacity : int " style="text;whiteSpace=wrap;" vertex="1" parent="mQm23o8UObB9y6hTezoZ-11">
          <mxGeometry y="26" width="190" height="18" as="geometry" />
        </mxCell>
        <mxCell id="mQm23o8UObB9y6hTezoZ-14" value="" style="line;html=1;strokeWidth=1;align=left;verticalAlign=middle;spacingTop=-1;spacingLeft=3;spacingRight=3;rotatable=0;labelPosition=right;points=[];portConstraint=eastwest;" vertex="1" parent="mQm23o8UObB9y6hTezoZ-11">
          <mxGeometry y="44" width="190" height="20" as="geometry" />
        </mxCell>
        <mxCell id="mQm23o8UObB9y6hTezoZ-20" value="+createLowShip() : ship::Ship" style="text;whiteSpace=wrap;fontStyle=4" vertex="1" parent="mQm23o8UObB9y6hTezoZ-11">
          <mxGeometry y="64" width="190" height="22" as="geometry" />
        </mxCell>
        <mxCell id="mQm23o8UObB9y6hTezoZ-19" value="+createMediumShip() : ship::Ship" style="text;whiteSpace=wrap;fontStyle=4" vertex="1" parent="mQm23o8UObB9y6hTezoZ-11">
          <mxGeometry y="86" width="190" height="24" as="geometry" />
        </mxCell>
        <mxCell id="mQm23o8UObB9y6hTezoZ-18" value="+createHighShip() : ship::Ship;" style="text;whiteSpace=wrap;fontStyle=4" vertex="1" parent="mQm23o8UObB9y6hTezoZ-11">
          <mxGeometry y="110" width="190" height="36" as="geometry" />
        </mxCell>
        <mxCell id="mQm23o8UObB9y6hTezoZ-22" value="Ship" style="swimlane;fontStyle=0;align=center;verticalAlign=top;childLayout=stackLayout;horizontal=1;startSize=26;horizontalStack=0;resizeParent=1;resizeLast=0;collapsible=1;marginBottom=0;rounded=0;shadow=0;strokeWidth=1;" vertex="1" parent="WIyWlLk6GJQsqaUBKTNV-1">
          <mxGeometry x="40" y="480" width="255" height="240" as="geometry">
            <mxRectangle x="130" y="380" width="160" height="26" as="alternateBounds" />
          </mxGeometry>
        </mxCell>
        <mxCell id="mQm23o8UObB9y6hTezoZ-23" value="-m_logbook : std::shared_ptr&lt;Logbook&gt; " style="text;whiteSpace=wrap;" vertex="1" parent="mQm23o8UObB9y6hTezoZ-22">
          <mxGeometry y="26" width="255" height="18" as="geometry" />
        </mxCell>
        <mxCell id="mQm23o8UObB9y6hTezoZ-44" value="-m_type : TYPE_SHIP" style="text;whiteSpace=wrap;" vertex="1" parent="mQm23o8UObB9y6hTezoZ-22">
          <mxGeometry y="44" width="255" height="18" as="geometry" />
        </mxCell>
        <mxCell id="mQm23o8UObB9y6hTezoZ-45" value="-m_name : std::string " style="text;whiteSpace=wrap;" vertex="1" parent="mQm23o8UObB9y6hTezoZ-22">
          <mxGeometry y="62" width="255" height="18" as="geometry" />
        </mxCell>
        <mxCell id="mQm23o8UObB9y6hTezoZ-24" value="" style="line;html=1;strokeWidth=1;align=left;verticalAlign=middle;spacingTop=-1;spacingLeft=3;spacingRight=3;rotatable=0;labelPosition=right;points=[];portConstraint=eastwest;" vertex="1" parent="mQm23o8UObB9y6hTezoZ-22">
          <mxGeometry y="80" width="255" height="20" as="geometry" />
        </mxCell>
        <mxCell id="mQm23o8UObB9y6hTezoZ-25" value="+upCountDaysRepair() const : void" style="text;whiteSpace=wrap;fontStyle=4" vertex="1" parent="mQm23o8UObB9y6hTezoZ-22">
          <mxGeometry y="100" width="255" height="22" as="geometry" />
        </mxCell>
        <mxCell id="mQm23o8UObB9y6hTezoZ-26" value="+resetCountDaysRepair() const : void" style="text;whiteSpace=wrap;fontStyle=4" vertex="1" parent="mQm23o8UObB9y6hTezoZ-22">
          <mxGeometry y="122" width="255" height="24" as="geometry" />
        </mxCell>
        <mxCell id="mQm23o8UObB9y6hTezoZ-27" value="+isFullRepair() const : bool" style="text;whiteSpace=wrap;fontStyle=4" vertex="1" parent="mQm23o8UObB9y6hTezoZ-22">
          <mxGeometry y="146" width="255" height="24" as="geometry" />
        </mxCell>
        <mxCell id="mQm23o8UObB9y6hTezoZ-46" value="+getCapacity() const : int" style="text;whiteSpace=wrap;fontStyle=4" vertex="1" parent="mQm23o8UObB9y6hTezoZ-22">
          <mxGeometry y="170" width="255" height="18" as="geometry" />
        </mxCell>
        <mxCell id="mQm23o8UObB9y6hTezoZ-47" value="+getType() const : TYPE_SHIP" style="text;whiteSpace=wrap;fontStyle=4" vertex="1" parent="mQm23o8UObB9y6hTezoZ-22">
          <mxGeometry y="188" width="255" height="22" as="geometry" />
        </mxCell>
        <mxCell id="mQm23o8UObB9y6hTezoZ-48" value="+getName() const : std::string" style="text;whiteSpace=wrap;fontStyle=4" vertex="1" parent="mQm23o8UObB9y6hTezoZ-22">
          <mxGeometry y="210" width="255" height="22" as="geometry" />
        </mxCell>
        <mxCell id="mQm23o8UObB9y6hTezoZ-28" value="TYPE_SHIP{enum}" style="swimlane;fontStyle=0;align=center;verticalAlign=top;childLayout=stackLayout;horizontal=1;startSize=26;horizontalStack=0;resizeParent=1;resizeLast=0;collapsible=1;marginBottom=0;rounded=0;shadow=0;strokeWidth=1;" vertex="1" parent="WIyWlLk6GJQsqaUBKTNV-1">
          <mxGeometry x="10" y="840" width="190" height="100" as="geometry">
            <mxRectangle x="130" y="380" width="160" height="26" as="alternateBounds" />
          </mxGeometry>
        </mxCell>
        <mxCell id="mQm23o8UObB9y6hTezoZ-29" value="LITTLE" style="text;whiteSpace=wrap;" vertex="1" parent="mQm23o8UObB9y6hTezoZ-28">
          <mxGeometry y="26" width="190" height="18" as="geometry" />
        </mxCell>
        <mxCell id="mQm23o8UObB9y6hTezoZ-40" value="MEDIUM" style="text;whiteSpace=wrap;" vertex="1" parent="mQm23o8UObB9y6hTezoZ-28">
          <mxGeometry y="44" width="190" height="18" as="geometry" />
        </mxCell>
        <mxCell id="mQm23o8UObB9y6hTezoZ-41" value="HIGH" style="text;whiteSpace=wrap;" vertex="1" parent="mQm23o8UObB9y6hTezoZ-28">
          <mxGeometry y="62" width="190" height="18" as="geometry" />
        </mxCell>
        <mxCell id="mQm23o8UObB9y6hTezoZ-30" value="" style="line;html=1;strokeWidth=1;align=left;verticalAlign=middle;spacingTop=-1;spacingLeft=3;spacingRight=3;rotatable=0;labelPosition=right;points=[];portConstraint=eastwest;" vertex="1" parent="mQm23o8UObB9y6hTezoZ-28">
          <mxGeometry y="80" width="190" height="20" as="geometry" />
        </mxCell>
        <mxCell id="mQm23o8UObB9y6hTezoZ-34" value="Logbook{struct}" style="swimlane;fontStyle=0;align=center;verticalAlign=top;childLayout=stackLayout;horizontal=1;startSize=26;horizontalStack=0;resizeParent=1;resizeLast=0;collapsible=1;marginBottom=0;rounded=0;shadow=0;strokeWidth=1;" vertex="1" parent="WIyWlLk6GJQsqaUBKTNV-1">
          <mxGeometry x="240" y="840" width="190" height="100" as="geometry">
            <mxRectangle x="130" y="380" width="160" height="26" as="alternateBounds" />
          </mxGeometry>
        </mxCell>
        <mxCell id="mQm23o8UObB9y6hTezoZ-35" value="-m_countDeysRepair : int " style="text;whiteSpace=wrap;" vertex="1" parent="mQm23o8UObB9y6hTezoZ-34">
          <mxGeometry y="26" width="190" height="18" as="geometry" />
        </mxCell>
        <mxCell id="mQm23o8UObB9y6hTezoZ-42" value="-m_daysRepair : int " style="text;whiteSpace=wrap;" vertex="1" parent="mQm23o8UObB9y6hTezoZ-34">
          <mxGeometry y="44" width="190" height="18" as="geometry" />
        </mxCell>
        <mxCell id="mQm23o8UObB9y6hTezoZ-43" value="-m_capacity : int " style="text;whiteSpace=wrap;" vertex="1" parent="mQm23o8UObB9y6hTezoZ-34">
          <mxGeometry y="62" width="190" height="18" as="geometry" />
        </mxCell>
        <mxCell id="mQm23o8UObB9y6hTezoZ-36" value="" style="line;html=1;strokeWidth=1;align=left;verticalAlign=middle;spacingTop=-1;spacingLeft=3;spacingRight=3;rotatable=0;labelPosition=right;points=[];portConstraint=eastwest;" vertex="1" parent="mQm23o8UObB9y6hTezoZ-34">
          <mxGeometry y="80" width="190" height="20" as="geometry" />
        </mxCell>
        <mxCell id="mQm23o8UObB9y6hTezoZ-50" value="QueueShip" style="swimlane;fontStyle=0;align=center;verticalAlign=top;childLayout=stackLayout;horizontal=1;startSize=26;horizontalStack=0;resizeParent=1;resizeLast=0;collapsible=1;marginBottom=0;rounded=0;shadow=0;strokeWidth=1;" vertex="1" parent="WIyWlLk6GJQsqaUBKTNV-1">
          <mxGeometry x="480" y="520" width="220" height="90" as="geometry">
            <mxRectangle x="130" y="380" width="160" height="26" as="alternateBounds" />
          </mxGeometry>
        </mxCell>
        <mxCell id="mQm23o8UObB9y6hTezoZ-51" value="-m_shipsQueue : std::deque&lt;Ship&gt; " style="text;whiteSpace=wrap;" vertex="1" parent="mQm23o8UObB9y6hTezoZ-50">
          <mxGeometry y="26" width="220" height="18" as="geometry" />
        </mxCell>
        <mxCell id="mQm23o8UObB9y6hTezoZ-54" value="" style="line;html=1;strokeWidth=1;align=left;verticalAlign=middle;spacingTop=-1;spacingLeft=3;spacingRight=3;rotatable=0;labelPosition=right;points=[];portConstraint=eastwest;" vertex="1" parent="mQm23o8UObB9y6hTezoZ-50">
          <mxGeometry y="44" width="220" height="20" as="geometry" />
        </mxCell>
        <mxCell id="mQm23o8UObB9y6hTezoZ-55" value="+getShip() : Ship" style="text;whiteSpace=wrap;" vertex="1" parent="mQm23o8UObB9y6hTezoZ-50">
          <mxGeometry y="64" width="220" height="26" as="geometry" />
        </mxCell>
        <mxCell id="mQm23o8UObB9y6hTezoZ-57" value="0..*" style="endArrow=diamondThin;html=1;rounded=0;exitX=0;exitY=0.5;exitDx=0;exitDy=0;entryX=1;entryY=0;entryDx=0;entryDy=0;endFill=0;endSize=10;" edge="1" parent="WIyWlLk6GJQsqaUBKTNV-1" source="mQm23o8UObB9y6hTezoZ-50" target="mQm23o8UObB9y6hTezoZ-45">
          <mxGeometry width="50" height="50" relative="1" as="geometry">
            <mxPoint x="280" y="580" as="sourcePoint" />
            <mxPoint x="330" y="530" as="targetPoint" />
          </mxGeometry>
        </mxCell>
        <mxCell id="mQm23o8UObB9y6hTezoZ-58" value="&amp;lt;&amp;lt;Use&amp;gt;&amp;gt;" style="endArrow=open;html=1;rounded=0;exitX=0.5;exitY=1;exitDx=0;exitDy=0;entryX=0.5;entryY=0;entryDx=0;entryDy=0;endFill=0;endSize=10;" edge="1" parent="WIyWlLk6GJQsqaUBKTNV-1" source="mQm23o8UObB9y6hTezoZ-55" target="mQm23o8UObB9y6hTezoZ-11">
          <mxGeometry width="50" height="50" relative="1" as="geometry">
            <mxPoint x="280" y="580" as="sourcePoint" />
            <mxPoint x="330" y="530" as="targetPoint" />
          </mxGeometry>
        </mxCell>
        <mxCell id="mQm23o8UObB9y6hTezoZ-59" value="&amp;lt;&amp;lt;Use&amp;gt;&amp;gt;" style="endArrow=open;html=1;rounded=0;exitX=0;exitY=0;exitDx=0;exitDy=0;entryX=1;entryY=0.5;entryDx=0;entryDy=0;endFill=0;endSize=10;" edge="1" parent="WIyWlLk6GJQsqaUBKTNV-1" source="mQm23o8UObB9y6hTezoZ-13" target="mQm23o8UObB9y6hTezoZ-47">
          <mxGeometry width="50" height="50" relative="1" as="geometry">
            <mxPoint x="280" y="580" as="sourcePoint" />
            <mxPoint x="330" y="530" as="targetPoint" />
          </mxGeometry>
        </mxCell>
        <mxCell id="mQm23o8UObB9y6hTezoZ-60" value="0..1" style="endArrow=diamondThin;html=1;rounded=0;exitX=0.25;exitY=1;exitDx=0;exitDy=0;entryX=0.5;entryY=0;entryDx=0;entryDy=0;endSize=10;endFill=0;" edge="1" parent="WIyWlLk6GJQsqaUBKTNV-1" source="mQm23o8UObB9y6hTezoZ-22" target="mQm23o8UObB9y6hTezoZ-28">
          <mxGeometry width="50" height="50" relative="1" as="geometry">
            <mxPoint x="280" y="580" as="sourcePoint" />
            <mxPoint x="330" y="530" as="targetPoint" />
          </mxGeometry>
        </mxCell>
        <mxCell id="mQm23o8UObB9y6hTezoZ-61" value="0..1" style="endArrow=diamondThin;html=1;rounded=0;exitX=0.75;exitY=1;exitDx=0;exitDy=0;entryX=0.5;entryY=0;entryDx=0;entryDy=0;endFill=0;endSize=10;" edge="1" parent="WIyWlLk6GJQsqaUBKTNV-1" source="mQm23o8UObB9y6hTezoZ-22" target="mQm23o8UObB9y6hTezoZ-34">
          <mxGeometry width="50" height="50" relative="1" as="geometry">
            <mxPoint x="280" y="580" as="sourcePoint" />
            <mxPoint x="330" y="530" as="targetPoint" />
          </mxGeometry>
        </mxCell>
        <mxCell id="mQm23o8UObB9y6hTezoZ-62" value="0..1" style="endArrow=diamondThin;html=1;rounded=0;exitX=0.75;exitY=1;exitDx=0;exitDy=0;entryX=0.25;entryY=0;entryDx=0;entryDy=0;endFill=0;endSize=10;" edge="1" parent="WIyWlLk6GJQsqaUBKTNV-1" source="zkfFHV4jXpPFQw0GAbJ--0" target="mQm23o8UObB9y6hTezoZ-50">
          <mxGeometry width="50" height="50" relative="1" as="geometry">
            <mxPoint x="330" y="580" as="sourcePoint" />
            <mxPoint x="380" y="530" as="targetPoint" />
          </mxGeometry>
        </mxCell>
        <mxCell id="mQm23o8UObB9y6hTezoZ-63" value="&amp;lt;&amp;lt;use&amp;gt;&amp;gt;" style="endArrow=open;html=1;rounded=0;exitX=0.5;exitY=1;exitDx=0;exitDy=0;entryX=0.75;entryY=0;entryDx=0;entryDy=0;endFill=0;endSize=10;" edge="1" parent="WIyWlLk6GJQsqaUBKTNV-1" source="zkfFHV4jXpPFQw0GAbJ--0" target="mQm23o8UObB9y6hTezoZ-22">
          <mxGeometry width="50" height="50" relative="1" as="geometry">
            <mxPoint x="330" y="580" as="sourcePoint" />
            <mxPoint x="380" y="530" as="targetPoint" />
          </mxGeometry>
        </mxCell>
        <mxCell id="mQm23o8UObB9y6hTezoZ-64" value="Random" style="swimlane;fontStyle=0;align=center;verticalAlign=top;childLayout=stackLayout;horizontal=1;startSize=26;horizontalStack=0;resizeParent=1;resizeLast=0;collapsible=1;marginBottom=0;rounded=0;shadow=0;strokeWidth=1;" vertex="1" parent="WIyWlLk6GJQsqaUBKTNV-1">
          <mxGeometry x="637" y="660" width="190" height="80" as="geometry">
            <mxRectangle x="130" y="380" width="160" height="26" as="alternateBounds" />
          </mxGeometry>
        </mxCell>
        <mxCell id="mQm23o8UObB9y6hTezoZ-68" value="" style="line;html=1;strokeWidth=1;align=left;verticalAlign=middle;spacingTop=-1;spacingLeft=3;spacingRight=3;rotatable=0;labelPosition=right;points=[];portConstraint=eastwest;" vertex="1" parent="mQm23o8UObB9y6hTezoZ-64">
          <mxGeometry y="26" width="190" height="20" as="geometry" />
        </mxCell>
        <mxCell id="mQm23o8UObB9y6hTezoZ-67" value="+random(int min, int max) : int" style="text;whiteSpace=wrap;" vertex="1" parent="mQm23o8UObB9y6hTezoZ-64">
          <mxGeometry y="46" width="190" height="18" as="geometry" />
        </mxCell>
        <mxCell id="mQm23o8UObB9y6hTezoZ-69" value="Writer" style="swimlane;fontStyle=0;align=center;verticalAlign=top;childLayout=stackLayout;horizontal=1;startSize=26;horizontalStack=0;resizeParent=1;resizeLast=0;collapsible=1;marginBottom=0;rounded=0;shadow=0;strokeWidth=1;" vertex="1" parent="WIyWlLk6GJQsqaUBKTNV-1">
          <mxGeometry x="600" y="194" width="190" height="100" as="geometry">
            <mxRectangle x="130" y="380" width="160" height="26" as="alternateBounds" />
          </mxGeometry>
        </mxCell>
        <mxCell id="mQm23o8UObB9y6hTezoZ-70" value="-m_name : std::string " style="text;whiteSpace=wrap;" vertex="1" parent="mQm23o8UObB9y6hTezoZ-69">
          <mxGeometry y="26" width="190" height="18" as="geometry" />
        </mxCell>
        <mxCell id="mQm23o8UObB9y6hTezoZ-73" value="" style="line;html=1;strokeWidth=1;align=left;verticalAlign=middle;spacingTop=-1;spacingLeft=3;spacingRight=3;rotatable=0;labelPosition=right;points=[];portConstraint=eastwest;" vertex="1" parent="mQm23o8UObB9y6hTezoZ-69">
          <mxGeometry y="44" width="190" height="20" as="geometry" />
        </mxCell>
        <mxCell id="mQm23o8UObB9y6hTezoZ-71" value="+ write : void" style="text;whiteSpace=wrap;" vertex="1" parent="mQm23o8UObB9y6hTezoZ-69">
          <mxGeometry y="64" width="190" height="18" as="geometry" />
        </mxCell>
        <mxCell id="mQm23o8UObB9y6hTezoZ-76" value="0..1" style="endArrow=diamondThin;html=1;rounded=0;exitX=1;exitY=0.5;exitDx=0;exitDy=0;entryX=0;entryY=0.75;entryDx=0;entryDy=0;endFill=0;endSize=10;" edge="1" parent="WIyWlLk6GJQsqaUBKTNV-1" source="mQm23o8UObB9y6hTezoZ-3" target="mQm23o8UObB9y6hTezoZ-71">
          <mxGeometry width="50" height="50" relative="1" as="geometry">
            <mxPoint x="330" y="480" as="sourcePoint" />
            <mxPoint x="380" y="430" as="targetPoint" />
          </mxGeometry>
        </mxCell>
        <mxCell id="mQm23o8UObB9y6hTezoZ-77" value="&amp;lt;&amp;lt;Use&amp;gt;&amp;gt;" style="endArrow=open;html=1;rounded=0;exitX=0.75;exitY=1;exitDx=0;exitDy=0;entryX=0.5;entryY=0;entryDx=0;entryDy=0;endFill=0;endSize=10;" edge="1" parent="WIyWlLk6GJQsqaUBKTNV-1" source="mQm23o8UObB9y6hTezoZ-55" target="mQm23o8UObB9y6hTezoZ-64">
          <mxGeometry width="50" height="50" relative="1" as="geometry">
            <mxPoint x="590" y="580" as="sourcePoint" />
            <mxPoint x="640" y="530" as="targetPoint" />
          </mxGeometry>
        </mxCell>
        <mxCell id="mQm23o8UObB9y6hTezoZ-78" value="&amp;lt;&amp;lt;Use&amp;gt;&amp;gt;" style="endArrow=open;html=1;rounded=0;exitX=0.75;exitY=0;exitDx=0;exitDy=0;entryX=0.25;entryY=1;entryDx=0;entryDy=0;endFill=0;" edge="1" parent="WIyWlLk6GJQsqaUBKTNV-1" source="mQm23o8UObB9y6hTezoZ-11" target="mQm23o8UObB9y6hTezoZ-64">
          <mxGeometry width="50" height="50" relative="1" as="geometry">
            <mxPoint x="590" y="580" as="sourcePoint" />
            <mxPoint x="640" y="530" as="targetPoint" />
          </mxGeometry>
        </mxCell>
      </root>
    </mxGraphModel>
  </diagram>
</mxfile>
